<?xml version="1.0" standalone="no"?>
<!DOCTYPE svg PUBLIC "-//W3C//DTD SVG 20010904//EN"
 "http://www.w3.org/TR/2001/REC-SVG-20010904/DTD/svg10.dtd">
<svg version="1.0" xmlns="http://www.w3.org/2000/svg"
 width="1250.000000pt" height="870.000000pt" viewBox="0 0 1250.000000 870.000000"
 preserveAspectRatio="xMidYMid meet">

<g transform="translate(0.000000,870.000000) scale(0.100000,-0.100000)"
fill="#000000" stroke="none">
<path d="M0 4350 l0 -4350 6250 0 6250 0 0 4350 0 4350 -6250 0 -6250 0 0
-4350z m6493 2453 c39 -20 114 -125 132 -186 9 -29 20 -100 24 -160 13 -167
27 -178 206 -159 135 15 190 5 353 -62 207 -85 233 -89 592 -91 348 -2 429
-12 603 -75 220 -80 417 -234 417 -326 0 -34 -28 -64 -61 -64 -9 0 -28 -9 -43
-21 -59 -47 -18 -125 134 -252 137 -115 313 -281 303 -284 -5 -2 -45 12 -89
30 -169 72 -511 171 -749 217 -260 49 -610 70 -855 51 -374 -30 -698 -130
-1635 -503 -713 -285 -1016 -385 -1325 -439 -41 -8 -138 -14 -215 -14 -147 0
-212 13 -299 57 -103 53 -190 178 -217 313 -9 47 -15 61 -20 48 -19 -46 -7 83
15 170 71 278 285 571 607 831 101 81 346 246 366 246 8 0 35 -19 60 -43 63
-60 68 -105 23 -208 -41 -91 -49 -149 -25 -172 40 -41 119 -32 263 29 267 114
395 220 873 723 318 336 437 408 562 344z m1511 -1720 c33 -10 61 -24 63 -30
7 -19 -53 -51 -149 -80 -216 -65 6 -63 247 2 426 115 545 118 736 19 129 -68
229 -167 214 -213 -14 -44 -57 -51 -316 -51 l-242 0 19 -21 c26 -28 111 -71
220 -109 285 -99 499 -444 455 -734 -34 -230 -166 -389 -493 -592 -176 -109
-507 -268 -523 -252 -4 3 0 29 9 57 10 34 37 79 81 134 317 394 403 740 245
987 -36 56 -129 149 -190 191 -60 40 -222 122 -318 160 -114 45 -318 95 -472
114 -240 31 -705 8 -899 -45 -23 -6 -45 -9 -47 -7 -3 3 39 32 93 65 356 218
704 372 938 416 100 19 248 14 329 -11z m-1301 -540 c-24 -2 -62 -2 -85 0 -24
2 -5 4 42 4 47 0 66 -2 43 -4z m226 -408 c417 -60 738 -220 845 -424 100 -191
85 -412 -41 -583 -71 -97 -274 -236 -467 -320 -50 -22 -149 -60 -221 -84
l-130 -43 -50 -86 c-57 -97 -96 -148 -129 -170 -12 -8 -55 -19 -95 -24 -101
-13 -115 -24 -145 -124 -39 -127 -87 -163 -165 -122 -40 20 -113 104 -147 169
-16 31 -34 56 -41 56 -11 0 -33 -52 -63 -145 -58 -183 -188 -303 -315 -293
-46 4 -62 10 -91 39 -49 47 -88 135 -121 268 -34 139 -52 161 -126 161 -28 0
-90 -8 -138 -17 -83 -16 -89 -16 -114 1 -34 23 -65 91 -78 176 l-10 68 -138
36 c-471 123 -863 343 -958 538 -24 50 -28 134 -8 162 12 16 18 12 66 -44 143
-164 405 -339 658 -439 369 -146 852 -202 1253 -145 452 65 849 280 964 523
27 58 31 76 31 151 -1 95 -21 148 -89 227 -150 174 -520 319 -1019 399 -59 9
-106 18 -104 20 14 14 438 76 597 88 119 8 479 -3 589 -19z m-2839 -740 c32
-20 123 -67 202 -105 79 -38 140 -70 136 -70 -35 -1 -418 183 -418 201 0 16
22 10 80 -26z m380 -185 c8 -5 11 -10 5 -10 -5 0 -17 5 -25 10 -8 5 -10 10 -5
10 6 0 17 -5 25 -10z"/>
</g>
</svg>
